<svg xmlns="http://www.w3.org/2000/svg" width="39" height="36" fill="none">
    <defs>
        <clipPath id="a">
            <path fill="#fff" fill-opacity="0" d="M0 0h39v36H0z"/>
        </clipPath>
    </defs>
    <path fill="none" d="M0 0h39v36H0z"/>
        <g clip-path="url(#a)">
            <path fill="#000" d="M12 6H9v3h3V6Zm3 0h-3v3h3V6ZM9 9H6v3h3V9Zm0 3H6v3h3v-3Zm0 3H6v3h3v-3Zm9-9h-3v3h3V6Zm-6 12H9v3h3v-3Zm3 3h-3v3h3v-3Zm3 3h-3v3h3v-3Zm9-18h3v3h-3V6Zm-3 0h3v3h-3V6Zm6 3h3v3h-3V9Zm0 3h3v3h-3v-3Zm0 3h3v3h-3v-3Zm-9-9h3v3h-3V6Zm6 12h3v3h-3v-3Zm-3 3h3v3h-3v-3Zm-3 3h3v3h-3v-3Zm0 3h-3v3h3v-3Zm0-18h-3v3h3V9Z"/>
            <path fill="red" d="M12 9H9v3h3V9Zm3 3h-3v3h3v-3Zm3-3h-3v3h3V9Zm-6 6H9v3h3v-3Zm3 0h-3v3h3v-3Zm0 3h-3v3h3v-3Zm3-6h-3v3h3v-3Zm0 9h-3v3h3v-3Zm0-3h-3v3h3v-3Zm9-9h3v3h-3V9Zm-3 0h3v3h-3V9Zm3 3h3v3h-3v-3Zm-3 0h3v3h-3v-3Zm-3-3h3v3h-3V9Zm6 6h3v3h-3v-3Zm-3 0h3v3h-3v-3Zm0 3h3v3h-3v-3Zm-3-6h3v3h-3v-3Zm0 9h3v3h-3v-3Zm0-3h3v3h-3v-3Zm0 3h-3v3h3v-3Zm0 3h-3v3h3v-3Z"/>
            <path fill="#FFF" d="M18 15h-3v3h3v-3Zm3 0h3v3h-3v-3Zm0 0h-3v3h3v-3Zm0-3h-3v3h3v-3Zm0 6h-3v3h3v-3Z"/>
            <path fill="red" d="M36 13h3v3h-3v-3Zm-9 14h3v3h-3v-3Zm-9 6h3v3h-3v-3Zm-9-6h3v3H9v-3ZM24 0h3v3h-3V0Zm9 3h3v3h-3V3ZM3 3h3v3H3V3Zm9-3h3v3h-3V0ZM0 13h3v3H0v-3Z"/>
        </g>
</svg>